<svg xmlns="http://www.w3.org/2000/svg" width="31" height="44"><path id="icon" d="M558.6 655.809l-6.584-2.917-5.674 2.51a1.651 1.651 0 01-1.864-.355 1.634 1.634 0 01-.313-1.862l4.994-10.516a1.1 1.1 0 111.972.987l-4.343 9.144 4.32-1.914a2.227 2.227 0 011.806 0l6.583 2.916h.011l6.585-2.917a2.223 2.223 0 011.8 0l4.32 1.914-4.342-9.145a1.093 1.093 0 01.174-1.275 1.107 1.107 0 011.8.288l4.994 10.518a1.656 1.656 0 01-2.176 2.216L567 652.892l-6.594 2.917a2.23 2.23 0 01-1.806 0zm-1.947-7.6l-9.553-15.926c-.011-.02-.023-.041-.033-.062a13.944 13.944 0 1126.39-6.327 13.691 13.691 0 01-1.528 6.327l-.034.062-9.548 15.927a3.326 3.326 0 01-5.697 0zm2.683-34.012a11.783 11.783 0 00-11.586 11.625 11.521 11.521 0 001.269 5.366l9.529 15.9a1.114 1.114 0 001.91 0l9.528-15.9a11.665 11.665 0 00-2.231-13.625 11.7 11.7 0 00-8.247-3.368zm-4.884 11.7a5.051 5.051 0 115.051 5.027 5.044 5.044 0 01-5.054-5.03zm2.206 0a2.845 2.845 0 102.845-2.83 2.842 2.842 0 00-2.848 2.827z" transform="translate(-544 -612)" fill="#a3bbc8" fill-rule="evenodd"/></svg>