<svg xmlns="http://www.w3.org/2000/svg" width="13pt" height="13pt" viewBox="0 0 13 13"><g id="surface1" fill="#fff"><path d="M10.914 1.426h-.394V.992c0-.547-.434-.992-.965-.992a.978.978 0 00-.965.992v.434h-.988V.992C7.602.445 7.168 0 6.637 0c-.532 0-.965.445-.965.992v.434h-.988V.992C4.684.445 4.25 0 3.719 0c-.531 0-.965.445-.965.992v.434h-.508c-.844 0-1.535.687-1.535 1.535v8.664c0 .848.691 1.535 1.535 1.535h8.668c.848 0 1.535-.687 1.535-1.535V2.961c0-.848-.687-1.535-1.535-1.535zM9.133.992c0-.246.187-.449.422-.449.23 0 .422.203.422.45v1.769c0 .25-.192.449-.422.449-.235 0-.422-.2-.422-.45zm-2.918 0c0-.246.187-.449.422-.449.23 0 .422.203.422.45v1.769c0 .25-.192.449-.422.449-.235 0-.422-.2-.422-.45zm-2.918 0c0-.246.187-.449.422-.449.23 0 .422.203.422.45v1.769c0 .25-.192.449-.422.449-.235 0-.422-.2-.422-.45zm8.25 10.637a.632.632 0 01-.633.629H2.246a.628.628 0 01-.629-.63V3.685h9.93zm0 0"/><path d="M2.43 5.281h1.656v1.477H2.43zm2.215 0H6.3v1.477H4.645zm2.215 0h1.66v1.477H6.86zm2.214 0h1.66v1.477h-1.66zM2.43 7.254h1.656v1.473H2.43zm2.215 0H6.3v1.473H4.645zm2.215 0h1.66v1.473H6.86zm2.214 0h1.66v1.473h-1.66zM2.43 9.223h1.656v1.476H2.43zm2.215 0H6.3v1.476H4.645zm2.215 0h1.66v1.476H6.86zm2.214 0h1.66v1.476h-1.66zm0 0"/></g></svg>