<svg xmlns="http://www.w3.org/2000/svg" width="8.13" height="15.43"><path id="Path_1" data-name="Path 1" d="M1069.19 1899.12c.41 0 .83.03 1.24.05.27.01.54.04.79.07l-.02 2.49h-.2c-.27 0-.54-.01-.82-.01-.2 0-.4.01-.61.01a1.041 1.041 0 00-1.18 1.09c-.02.6-.03 1.9-.03 1.97.03 0 .68.01 1.34.01.32 0 .64 0 .87-.01h.53c-.13.96-.26 1.87-.39 2.8h-2.35l-.06 6.97h-2.89l.06-6.99h-2.37l.02-2.77h2.38v-.21c.01-.56 0-1.12.02-1.68a7.581 7.581 0 01.09-1.06 3.145 3.145 0 011.27-2.08 3.6 3.6 0 012.08-.64c.08 0 .15-.01.23-.01z" transform="translate(-1063.09 -1899.13)" fill="#a1a1a1" fill-rule="evenodd"/></svg>