<svg xmlns="http://www.w3.org/2000/svg" width="13pt" height="13pt" viewBox="0 0 13 13"><path d="M6.406 6.262c.864 0 1.606-.309 2.215-.918.61-.61.918-1.352.918-2.211 0-.863-.309-1.606-.918-2.215A3.033 3.033 0 006.406 0c-.86 0-1.605.309-2.21.918a3.026 3.026 0 00-.919 2.215c0 .86.309 1.601.918 2.21.606.61 1.352.919 2.211.919zM4.73 1.457A2.262 2.262 0 016.406.762c.66 0 1.211.226 1.676.695.469.465.695 1.016.695 1.676 0 .66-.226 1.207-.695 1.672a2.256 2.256 0 01-1.676.695c-.66 0-1.207-.227-1.676-.695a2.258 2.258 0 01-.69-1.672c0-.66.226-1.211.69-1.676zm7.157 8.539a8.595 8.595 0 00-.106-.82 6.76 6.76 0 00-.203-.828c-.082-.262-.2-.52-.34-.77a2.855 2.855 0 00-.511-.668 2.302 2.302 0 00-.735-.46 2.531 2.531 0 00-.937-.169c-.133 0-.262.055-.512.215-.152.098-.328.215-.527.34-.172.11-.403.21-.688.305a2.714 2.714 0 01-1.68 0 3.074 3.074 0 01-.683-.305c-.2-.125-.375-.238-.531-.34-.247-.164-.375-.215-.508-.215-.34 0-.656.055-.938.168-.289.114-.535.27-.738.461-.191.188-.363.41-.512.668-.14.25-.254.508-.34.77a6.77 6.77 0 00-.199.828c-.054.289-.09.566-.105.82-.02.25-.028.508-.028.77 0 .675.215 1.226.641 1.632.422.399.977.602 1.652.602h6.262c.676 0 1.23-.203 1.649-.602.425-.406.644-.957.644-1.632 0-.262-.012-.524-.027-.77zm-1.14 1.848c-.278.265-.645.394-1.13.394H3.36c-.48 0-.847-.129-1.125-.394-.273-.258-.406-.61-.406-1.078 0-.246.008-.485.024-.715a6.27 6.27 0 01.097-.742c.047-.262.106-.504.176-.727.066-.215.16-.426.277-.625.11-.195.235-.36.375-.496.133-.125.297-.227.489-.305.18-.07.382-.11.601-.113.028.012.074.039.153.09.156.101.335.219.535.347.226.141.515.274.86.383a3.412 3.412 0 002.147 0 3.82 3.82 0 00.864-.383l.535-.347c.074-.051.125-.078.148-.09.223.004.422.043.602.113.195.078.36.18.488.305.14.133.266.3.38.496.112.2.206.41.273.625a5.2 5.2 0 01.18.727c.046.265.077.515.093.742.016.23.027.469.027.715 0 .468-.132.82-.406 1.078zm0 0" id="surface1" fill="#fff"/></svg>